<svg width="24" height="26" viewBox="0 0 24 26" fill="none" xmlns="http://www.w3.org/2000/svg">
<line x1="5.5" y1="10" x2="5.5" y2="1" stroke="white"/>
<line x1="5" y1="0.5" x2="23" y2="0.5" stroke="white"/>
<line x1="22.5" y1="1" x2="22.5" y2="25" stroke="white"/>
<line x1="22" y1="24.5" x2="6" y2="24.5" stroke="white"/>
<line x1="5.5" y1="25" x2="5.5" y2="16" stroke="white"/>
<path d="M17.7071 13.7071C18.0976 13.3166 18.0976 12.6834 17.7071 12.2929L11.3431 5.92893C10.9526 5.53841 10.3195 5.53841 9.92893 5.92893C9.53841 6.31946 9.53841 6.95262 9.92893 7.34315L15.5858 13L9.92893 18.6569C9.53841 19.0474 9.53841 19.6805 9.92893 20.0711C10.3195 20.4616 10.9526 20.4616 11.3431 20.0711L17.7071 13.7071ZM1 14H17V12H1V14Z" fill="white"/>
<line x1="6.5" y1="10" x2="6.5" y2="1" stroke="white"/>
<line x1="7" y1="1.5" x2="22" y2="1.5" stroke="white"/>
<line x1="23.5" x2="23.5" y2="26" stroke="white"/>
<line x1="23" y1="25.5" x2="5" y2="25.5" stroke="white"/>
<line x1="6.5" y1="16" x2="6.5" y2="24" stroke="white"/>
<line x1="0.5" y1="12" x2="0.5" y2="14" stroke="white"/>
</svg>
